<?xml version="1.0" encoding="iso-8859-1"?>
<!-- Generator: Adobe Illustrator 18.0.0, SVG Export Plug-In . SVG Version: 6.00 Build 0)  -->
<!DOCTYPE svg PUBLIC "-//W3C//DTD SVG 1.1//EN" "http://www.w3.org/Graphics/SVG/1.1/DTD/svg11.dtd">
<svg version="1.1" id="Capa_1" xmlns="http://www.w3.org/2000/svg" xmlns:xlink="http://www.w3.org/1999/xlink" x="0px" y="0px"
	 viewBox="0 0 60.002 60.002" style="enable-background:new 0 0 60.002 60.002;" xml:space="preserve">
<g>
	<path d="M59.002,37.992c-3.69,0-6.693-3.003-6.693-6.693c0-0.553-0.447-1-1-1s-1,0.447-1,1c0,4.794,3.899,8.693,8.693,8.693
		c0.553,0,1-0.447,1-1S59.554,37.992,59.002,37.992z"/>
	<path d="M58.256,35.65c0.553,0,1-0.447,1-1s-0.447-1-1-1c-0.886,0-1.605-0.72-1.605-1.605c0-0.553-0.447-1-1-1s-1,0.447-1,1
		C54.65,34.033,56.267,35.65,58.256,35.65z"/>
	<path d="M20.002,2.992c3.691,0,6.693,3.003,6.693,6.693c0,0.553,0.448,1,1,1s1-0.447,1-1c0-4.794-3.9-8.693-8.693-8.693
		c-0.552,0-1,0.447-1,1S19.449,2.992,20.002,2.992z"/>
	<path d="M19.748,6.334c0,0.553,0.448,1,1,1c0.885,0,1.604,0.72,1.604,1.605c0,0.553,0.448,1,1,1s1-0.447,1-1
		c0-1.988-1.617-3.605-3.604-3.605C20.196,5.334,19.748,5.781,19.748,6.334z"/>
	<path d="M44.076,37.889c-1.276-0.728-2.597-0.958-3.721-0.646c-0.844,0.234-1.532,0.768-1.996,1.546
		c-1.02,1.22-2.286,2.646-2.592,2.867c-2.367,1.604-4.25,1.415-6.294-0.629L17.987,29.542c-2.045-2.045-2.233-3.928-0.631-6.291
		c0.224-0.31,1.65-1.575,2.87-2.596c0.778-0.464,1.312-1.152,1.546-1.996c0.311-1.123,0.082-2.444-0.652-3.731
		c-0.173-0.296-4.291-7.27-8.085-9.277c-1.926-1.019-4.255-0.669-5.796,0.872L4.7,9.059c-4.014,4.014-5.467,8.563-4.321,13.52
		c0.956,4.132,3.742,8.529,8.282,13.068l14.705,14.706c5.762,5.762,11.258,8.656,16.298,8.656c3.701,0,7.157-1.562,10.291-4.695
		l2.537-2.537c1.541-1.541,1.892-3.87,0.872-5.796C51.356,42.186,44.383,38.069,44.076,37.889z M51.078,50.363L48.541,52.9
		c-6.569,6.567-14.563,5.235-23.76-3.961L10.075,34.233c-4.271-4.271-6.877-8.344-7.747-12.104
		c-0.995-4.301,0.244-8.112,3.786-11.655l2.537-2.537c0.567-0.566,1.313-0.862,2.07-0.862c0.467,0,0.939,0.112,1.376,0.344
		c3.293,1.743,7.256,8.454,7.29,8.511c0.449,0.787,0.62,1.608,0.457,2.196c-0.1,0.36-0.324,0.634-0.684,0.836l-0.15,0.104
		c-0.853,0.712-2.883,2.434-3.308,3.061c-0.612,0.904-1.018,1.792-1.231,2.665c-0.711-1.418-1.286-3.06-1.475-4.881
		c-0.057-0.548-0.549-0.935-1.098-0.892c-0.549,0.058-0.949,0.549-0.892,1.099c0.722,6.953,6.129,11.479,6.359,11.668
		c0.025,0.02,0.054,0.028,0.08,0.045l10.613,10.613c0.045,0.045,0.092,0.085,0.137,0.129c0.035,0.051,0.058,0.108,0.104,0.154
		c0.189,0.187,4.704,4.567,11.599,5.283c0.035,0.003,0.07,0.005,0.104,0.005c0.506,0,0.94-0.383,0.994-0.896
		c0.057-0.55-0.342-1.041-0.892-1.099c-2.114-0.219-3.987-0.839-5.548-1.558c0.765-0.23,1.543-0.612,2.332-1.146
		c0.628-0.426,2.35-2.455,3.061-3.308l0.104-0.151c0.202-0.359,0.476-0.583,0.836-0.684c0.588-0.159,1.409,0.008,2.186,0.45
		c0.067,0.04,6.778,4.003,8.521,7.296C52.202,48.062,51.994,49.447,51.078,50.363z"/>
</g>
<g>
</g>
<g>
</g>
<g>
</g>
<g>
</g>
<g>
</g>
<g>
</g>
<g>
</g>
<g>
</g>
<g>
</g>
<g>
</g>
<g>
</g>
<g>
</g>
<g>
</g>
<g>
</g>
<g>
</g>
</svg>
