<svg width="258" height="66" viewBox="0 0 258 66" fill="none" xmlns="http://www.w3.org/2000/svg">
<path d="M0.84 1.4H2.64V10.12C2.64 11.2133 2.86667 12.0667 3.32 12.68C3.78667 13.2933 4.50667 13.6 5.48 13.6C6.46667 13.6 7.18667 13.2933 7.64 12.68C8.09333 12.0667 8.32 11.2133 8.32 10.12V1.4H10.12V10.12C10.12 11.7067 9.73333 12.9533 8.96 13.86C8.18667 14.7533 7.02667 15.2 5.48 15.2C3.92 15.2 2.75333 14.7533 1.98 13.86C1.22 12.9533 0.84 11.7067 0.84 10.12V1.4ZM19.5488 13.58V15H12.6688V13.72L17.4088 6.54H12.8688V5.1H19.3488V6.4L14.5888 13.58H19.5488ZM26.6309 6.44C26.2576 6.44 25.8376 6.54 25.3709 6.74C24.9043 6.92667 24.3176 7.3 23.6109 7.86V15H21.9709V5.1H23.5309V6.48C24.2376 5.89333 24.8643 5.48667 25.4109 5.26C25.9576 5.02 26.4976 4.9 27.0309 4.9C27.6576 4.9 28.1776 5.04667 28.5909 5.34C29.0043 5.62 29.3109 6.02667 29.5109 6.56C30.2443 5.93333 30.8976 5.5 31.4709 5.26C32.0576 5.02 32.6309 4.9 33.1909 4.9C34.0709 4.9 34.7443 5.19333 35.2109 5.78C35.6776 6.35333 35.9109 7.17333 35.9109 8.24V15H34.2709V8.48C34.2709 7.12 33.7776 6.44 32.7909 6.44C32.4176 6.44 31.9909 6.54 31.5109 6.74C31.0443 6.92667 30.4576 7.3 29.7509 7.86C29.7643 7.91333 29.7709 7.97333 29.7709 8.04C29.7709 8.10667 29.7709 8.17333 29.7709 8.24V15H28.1309V8.48C28.1309 7.12 27.6309 6.44 26.6309 6.44ZM46.5938 15.1C45.9804 15.1 45.4871 14.96 45.1138 14.68C44.7538 14.4 44.5004 14.0533 44.3538 13.64C43.7004 14.2133 43.1071 14.62 42.5738 14.86C42.0404 15.0867 41.5071 15.2 40.9738 15.2C40.1071 15.2 39.4671 14.92 39.0538 14.36C38.6404 13.8 38.4338 13.1133 38.4338 12.3C38.4338 11.7533 38.5338 11.2667 38.7338 10.84C38.9338 10.4133 39.2738 10.08 39.7538 9.84C40.2338 9.58667 40.8804 9.46 41.6938 9.46C42.0538 9.46 42.4471 9.48667 42.8737 9.54C43.3004 9.58 43.7338 9.63333 44.1738 9.7V8.36C44.1738 7.61333 44.0071 7.10667 43.6738 6.84C43.3538 6.56 42.8804 6.42 42.2538 6.42C41.4004 6.42 40.4471 6.65333 39.3938 7.12L38.8738 5.76C39.4871 5.48 40.0738 5.26667 40.6338 5.12C41.1938 4.97333 41.7604 4.9 42.3338 4.9C43.2671 4.9 43.9804 5.05333 44.4738 5.36C44.9671 5.66667 45.3071 6.07333 45.4938 6.58C45.6804 7.08667 45.7738 7.64 45.7738 8.24V12.52C45.7738 12.8267 45.8338 13.0867 45.9538 13.3C46.0738 13.5 46.3138 13.6 46.6738 13.6H46.8938V15.1H46.5938ZM40.0538 12.28C40.0538 12.7333 40.1604 13.1 40.3738 13.38C40.5871 13.66 40.8938 13.8 41.2938 13.8C41.6404 13.8 42.0404 13.7 42.4938 13.5C42.9471 13.2867 43.5071 12.8667 44.1738 12.24V10.98C43.2671 10.8333 42.4671 10.76 41.7738 10.76C41.1604 10.76 40.7204 10.8867 40.4538 11.14C40.1871 11.3933 40.0538 11.7733 40.0538 12.28ZM53.977 6.44C53.6037 6.44 53.1637 6.53333 52.657 6.72C52.1637 6.90667 51.5637 7.28667 50.857 7.86V15H49.217V5.1H50.777V6.48C51.4837 5.88 52.1237 5.46667 52.697 5.24C53.2837 5.01333 53.8437 4.9 54.377 4.9C55.297 4.9 55.997 5.19333 56.477 5.78C56.9704 6.35333 57.217 7.17333 57.217 8.24V15H55.577V8.48C55.577 7.12 55.0437 6.44 53.977 6.44ZM65.3583 15V1.4H69.5983C70.9049 1.4 71.8983 1.74667 72.5783 2.44C73.2716 3.12 73.6183 4.03333 73.6183 5.18V6.24C73.6183 7.38667 73.2716 8.30667 72.5783 9C71.8983 9.69333 70.9049 10.04 69.5983 10.04H67.0983V15H65.3583ZM69.5983 3.04H67.0983V8.42H69.5983C70.3183 8.42 70.8649 8.22667 71.2383 7.84C71.6249 7.45333 71.8183 6.92 71.8183 6.24V5.18C71.8183 4.51333 71.6249 3.99333 71.2383 3.62C70.8649 3.23333 70.3183 3.04 69.5983 3.04ZM78.6683 13.74C80.0016 13.74 80.6683 13.2867 80.6683 12.38C80.6683 11.9933 80.5483 11.6867 80.3083 11.46C80.0683 11.2333 79.6283 11.04 78.9883 10.88L77.8883 10.6C77.0749 10.4 76.4683 10.0533 76.0683 9.56C75.6683 9.05333 75.4683 8.45333 75.4683 7.76C75.4683 7.25333 75.5816 6.78667 75.8083 6.36C76.0349 5.92 76.3949 5.56667 76.8883 5.3C77.3816 5.03333 78.0216 4.9 78.8083 4.9C79.3149 4.9 79.8283 4.96 80.3483 5.08C80.8816 5.18667 81.4216 5.37333 81.9683 5.64L81.4483 7.02C80.4749 6.58 79.5949 6.36 78.8083 6.36C77.6483 6.36 77.0683 6.79333 77.0683 7.66C77.0683 7.99333 77.1749 8.28 77.3883 8.52C77.6016 8.76 78.0016 8.95333 78.5883 9.1L79.6883 9.38C80.5683 9.59333 81.2149 9.94 81.6283 10.42C82.0416 10.9 82.2483 11.52 82.2483 12.28C82.2483 12.8267 82.1283 13.3267 81.8883 13.78C81.6616 14.22 81.2883 14.5667 80.7683 14.82C80.2616 15.0733 79.5749 15.2 78.7083 15.2C78.1349 15.2 77.5616 15.14 76.9883 15.02C76.4283 14.9 75.8483 14.7067 75.2483 14.44L75.6883 13.08C76.2616 13.3067 76.7816 13.4733 77.2483 13.58C77.7149 13.6867 78.1883 13.74 78.6683 13.74ZM86.6016 2.68H84.7616V0.84H86.6016V2.68ZM86.5016 15H84.8616V5.1H86.5016V15ZM96.1373 15L93.3573 10.42C93.104 10.6733 92.8373 10.9333 92.5573 11.2C92.2773 11.4667 91.984 11.7333 91.6773 12V15H90.0373V0.2H91.6773V10.16C92.544 9.32 93.3107 8.5 93.9773 7.7C94.6573 6.9 95.2773 6.03333 95.8373 5.1H97.7173C97.2373 5.9 96.744 6.64 96.2373 7.32C95.744 7.98667 95.184 8.66667 94.5573 9.36L98.1173 15H96.1373ZM107.799 9.44V10.64C107.799 12.0533 107.433 13.1667 106.699 13.98C105.979 14.7933 104.946 15.2 103.599 15.2C102.266 15.2 101.233 14.7933 100.499 13.98C99.7659 13.1667 99.3992 12.0533 99.3992 10.64V9.44C99.3992 8.05333 99.7592 6.95333 100.479 6.14C101.213 5.31333 102.253 4.9 103.599 4.9C104.946 4.9 105.979 5.31333 106.699 6.14C107.433 6.95333 107.799 8.05333 107.799 9.44ZM106.099 9.44C106.099 8.49333 105.886 7.75333 105.459 7.22C105.033 6.67333 104.413 6.4 103.599 6.4C102.799 6.4 102.179 6.67333 101.739 7.22C101.313 7.75333 101.099 8.49333 101.099 9.44V10.64C101.099 11.6267 101.313 12.3867 101.739 12.92C102.179 13.4533 102.799 13.72 103.599 13.72C104.413 13.72 105.033 13.4533 105.459 12.92C105.886 12.3867 106.099 11.6267 106.099 10.64V9.44ZM110.76 12.6V0.2H112.4V12.52C112.4 12.88 112.453 13.1533 112.56 13.34C112.68 13.5133 112.913 13.6 113.26 13.6H113.58V15.1H113.12C112.24 15.1 111.626 14.8667 111.28 14.4C110.933 13.9333 110.76 13.3333 110.76 12.6ZM123.893 9.44V10.64C123.893 12.0533 123.526 13.1667 122.793 13.98C122.073 14.7933 121.04 15.2 119.693 15.2C118.36 15.2 117.326 14.7933 116.593 13.98C115.86 13.1667 115.493 12.0533 115.493 10.64V9.44C115.493 8.05333 115.853 6.95333 116.573 6.14C117.306 5.31333 118.346 4.9 119.693 4.9C121.04 4.9 122.073 5.31333 122.793 6.14C123.526 6.95333 123.893 8.05333 123.893 9.44ZM122.193 9.44C122.193 8.49333 121.98 7.75333 121.553 7.22C121.126 6.67333 120.506 6.4 119.693 6.4C118.893 6.4 118.273 6.67333 117.833 7.22C117.406 7.75333 117.193 8.49333 117.193 9.44V10.64C117.193 11.6267 117.406 12.3867 117.833 12.92C118.273 13.4533 118.893 13.72 119.693 13.72C120.506 13.72 121.126 13.4533 121.553 12.92C121.98 12.3867 122.193 11.6267 122.193 10.64V9.44ZM134.793 16.24C134.793 17.2133 134.393 17.9933 133.593 18.58C132.807 19.1667 131.72 19.46 130.333 19.46C129.64 19.46 128.913 19.3667 128.153 19.18C127.407 18.9933 126.7 18.6933 126.033 18.28L126.593 17C127.26 17.3733 127.9 17.6333 128.513 17.78C129.14 17.94 129.747 18.02 130.333 18.02C131.24 18.02 131.94 17.8733 132.433 17.58C132.927 17.2867 133.173 16.8933 133.173 16.4C133.173 16.04 133.053 15.76 132.813 15.56C132.573 15.3733 132.187 15.28 131.653 15.28H129.353C128.487 15.28 127.86 15.0733 127.473 14.66C127.087 14.2467 126.893 13.7933 126.893 13.3C126.893 12.9533 126.973 12.6133 127.133 12.28C127.293 11.9333 127.52 11.5933 127.813 11.26C127.347 10.98 126.973 10.6 126.693 10.12C126.413 9.62667 126.273 9.03333 126.273 8.34C126.273 7.58 126.433 6.94667 126.753 6.44C127.087 5.93333 127.527 5.55333 128.073 5.3C128.62 5.03333 129.233 4.9 129.913 4.9H130.253C130.72 4.9 131.147 4.96667 131.533 5.1H135.093V6.56L132.933 6.26C133.213 6.5 133.44 6.8 133.613 7.16C133.787 7.50667 133.873 7.93333 133.873 8.44C133.873 9.16 133.707 9.76667 133.373 10.26C133.053 10.7533 132.62 11.1333 132.073 11.4C131.527 11.6533 130.92 11.78 130.253 11.78H129.913C129.74 11.78 129.573 11.7733 129.413 11.76C129.253 11.7333 129.093 11.7067 128.933 11.68C128.547 12.1067 128.353 12.5267 128.353 12.94C128.353 13.4733 128.727 13.74 129.473 13.74H131.713C132.673 13.74 133.427 13.9533 133.973 14.38C134.52 14.8067 134.793 15.4267 134.793 16.24ZM130.253 10.36C130.773 10.36 131.233 10.1933 131.633 9.86C132.033 9.52667 132.233 9.02 132.233 8.34C132.233 7.67333 132.033 7.17333 131.633 6.84C131.233 6.49333 130.773 6.32 130.253 6.32H129.913C129.38 6.32 128.913 6.49333 128.513 6.84C128.113 7.17333 127.913 7.67333 127.913 8.34C127.913 9.02 128.113 9.52667 128.513 9.86C128.913 10.1933 129.38 10.36 129.913 10.36H130.253ZM0.28 57V32.08H4.24L9.08 43.52L13.92 32.04H17.88V57H13.96V39.6L10.04 48.76H7.84L4.16 39.64V57H0.28ZM29.84 57.44C28.5067 57.44 27.2667 57.2267 26.12 56.8C25 56.3733 24.0133 55.76 23.16 54.96C22.3333 54.1333 21.6933 53.12 21.24 51.92C20.7867 50.72 20.56 49.36 20.56 47.84C20.56 46.2933 20.7867 44.9067 21.24 43.68C21.6933 42.4533 22.3067 41.4133 23.08 40.56C23.88 39.7067 24.8133 39.0667 25.88 38.64C26.9467 38.1867 28.0933 37.96 29.32 37.96C30.4133 37.96 31.44 38.1467 32.4 38.52C33.36 38.8933 34.2 39.4667 34.92 40.24C35.6667 40.9867 36.2533 41.9333 36.68 43.08C37.1067 44.2 37.32 45.5067 37.32 47C37.32 47.2667 37.3067 47.5867 37.28 47.96C37.28 48.3333 37.2667 48.6533 37.24 48.92H24.92C24.9733 49.8 25.1467 50.56 25.44 51.2C25.7333 51.8133 26.12 52.32 26.6 52.72C27.08 53.12 27.6133 53.4267 28.2 53.64C28.7867 53.8267 29.4 53.92 30.04 53.92C30.6 53.92 31.1333 53.8667 31.64 53.76C32.1733 53.6533 32.6667 53.4667 33.12 53.2C33.6 52.9333 34.0533 52.5867 34.48 52.16L36.8 54.4C36.2133 55.0933 35.5467 55.68 34.8 56.16C34.08 56.6133 33.2933 56.9333 32.44 57.12C31.6133 57.3333 30.7467 57.44 29.84 57.44ZM25 45.52H32.92C32.92 44.88 32.8267 44.3067 32.64 43.8C32.48 43.2933 32.24 42.8667 31.92 42.52C31.6 42.1733 31.2 41.92 30.72 41.76C30.2667 41.5733 29.7333 41.48 29.12 41.48C28.6133 41.48 28.12 41.56 27.64 41.72C27.1867 41.8533 26.7733 42.0933 26.4 42.44C26.0267 42.7867 25.72 43.2133 25.48 43.72C25.24 44.2267 25.08 44.8267 25 45.52ZM41.52 57V53.44H46.76V33.72H41.76V30.16H51.32V53.44H56.52V57H41.52ZM70.96 57.4C69.8933 57.4 68.96 57.2267 68.16 56.88C67.3867 56.5333 66.7333 55.9733 66.2 55.2C65.6933 54.4267 65.32 53.4 65.08 52.12C64.8667 50.84 64.8 49.2533 64.88 47.36L65.4 34L70.08 33.4L70.44 33.36L70.48 33.72C70.3733 33.9067 70.2667 34.0933 70.16 34.28C70.0533 34.4667 69.9867 34.7867 69.96 35.24L69.52 40.76L69.72 41.04L69.4 47.28C69.32 49.0133 69.3733 50.36 69.56 51.32C69.7733 52.2533 70.08 52.8933 70.48 53.24C70.9067 53.5867 71.4133 53.76 72 53.76C72.8533 53.76 73.6133 53.5867 74.28 53.24C74.9733 52.8933 75.6133 52.4933 76.2 52.04L77.16 55.32C76.2533 55.9867 75.28 56.5067 74.24 56.88C73.2267 57.2267 72.1333 57.4 70.96 57.4ZM61.36 38.4H75.68L75.64 41.96H61.28L61.36 38.4ZM89.84 57.44C88.5067 57.44 87.2667 57.2267 86.12 56.8C85 56.3733 84.0133 55.76 83.16 54.96C82.3333 54.1333 81.6933 53.12 81.24 51.92C80.7867 50.72 80.56 49.36 80.56 47.84C80.56 46.2933 80.7867 44.9067 81.24 43.68C81.6933 42.4533 82.3067 41.4133 83.08 40.56C83.88 39.7067 84.8133 39.0667 85.88 38.64C86.9467 38.1867 88.0933 37.96 89.32 37.96C90.4133 37.96 91.44 38.1467 92.4 38.52C93.36 38.8933 94.2 39.4667 94.92 40.24C95.6667 40.9867 96.2533 41.9333 96.68 43.08C97.1067 44.2 97.32 45.5067 97.32 47C97.32 47.2667 97.3067 47.5867 97.28 47.96C97.28 48.3333 97.2667 48.6533 97.24 48.92H84.92C84.9733 49.8 85.1467 50.56 85.44 51.2C85.7333 51.8133 86.12 52.32 86.6 52.72C87.08 53.12 87.6133 53.4267 88.2 53.64C88.7867 53.8267 89.4 53.92 90.04 53.92C90.6 53.92 91.1333 53.8667 91.64 53.76C92.1733 53.6533 92.6667 53.4667 93.12 53.2C93.6 52.9333 94.0533 52.5867 94.48 52.16L96.8 54.4C96.2133 55.0933 95.5467 55.68 94.8 56.16C94.08 56.6133 93.2933 56.9333 92.44 57.12C91.6133 57.3333 90.7467 57.44 89.84 57.44ZM85 45.52H92.92C92.92 44.88 92.8267 44.3067 92.64 43.8C92.48 43.2933 92.24 42.8667 91.92 42.52C91.6 42.1733 91.2 41.92 90.72 41.76C90.2667 41.5733 89.7333 41.48 89.12 41.48C88.6133 41.48 88.12 41.56 87.64 41.72C87.1867 41.8533 86.7733 42.0933 86.4 42.44C86.0267 42.7867 85.72 43.2133 85.48 43.72C85.24 44.2267 85.08 44.8267 85 45.52ZM100.2 57V38.4H104V39.76C104.32 39.3333 104.653 38.9867 105 38.72C105.347 38.4533 105.707 38.2667 106.08 38.16C106.48 38.0267 106.867 37.96 107.24 37.96C107.693 37.96 108.12 38.04 108.52 38.2C108.92 38.3333 109.28 38.5733 109.6 38.92C109.947 39.24 110.213 39.6667 110.4 40.2C110.693 39.6933 111.027 39.28 111.4 38.96C111.773 38.6133 112.2 38.36 112.68 38.2C113.187 38.04 113.733 37.96 114.32 37.96C115.013 37.96 115.6 38.08 116.08 38.32C116.56 38.56 116.947 38.9067 117.24 39.36C117.56 39.8133 117.787 40.3733 117.92 41.04C118.053 41.7067 118.12 42.4533 118.12 43.28V57H114.2V44.24C114.2 43.44 114.16 42.8267 114.08 42.4C114 41.9467 113.88 41.64 113.72 41.48C113.56 41.2933 113.347 41.2 113.08 41.2C112.733 41.2 112.4 41.3733 112.08 41.72C111.76 42.04 111.493 42.4933 111.28 43.08C111.093 43.64 111 44.3067 111 45.08V57H107.32V44.36C107.32 43.08 107.227 42.2267 107.04 41.8C106.853 41.3733 106.507 41.16 106 41.16C105.76 41.16 105.52 41.24 105.28 41.4C105.067 41.56 104.867 41.8 104.68 42.12C104.52 42.4133 104.387 42.8 104.28 43.28C104.173 43.7333 104.12 44.2533 104.12 44.84V57H100.2ZM149 57.52C146.253 57.52 144.133 56.7067 142.64 55.08C141.173 53.4267 140.44 51.16 140.44 48.28V32.08H144.92H145.28V32.44C145.147 32.6 145.053 32.7733 145 32.96C144.973 33.1467 144.96 33.4667 144.96 33.92V48.32C144.96 50.0267 145.253 51.3733 145.84 52.36C146.453 53.3467 147.52 53.84 149.04 53.84C150.587 53.84 151.667 53.3467 152.28 52.36C152.893 51.3467 153.2 49.96 153.2 48.2V32.08H157.6V48.16C157.6 50.2933 157.24 52.0533 156.52 53.44C155.8 54.8267 154.787 55.8533 153.48 56.52C152.2 57.1867 150.707 57.52 149 57.52ZM161.52 57V53.44H166.76V33.72H161.76V30.16H171.32V53.44H176.52V57H161.52ZM187.48 57.48C186.733 57.48 186.027 57.3733 185.36 57.16C184.693 56.9733 184.093 56.68 183.56 56.28C183.027 55.8533 182.56 55.32 182.16 54.68C181.787 54.04 181.493 53.28 181.28 52.4C181.067 51.4933 180.96 50.4667 180.96 49.32V38.4H185.52V49.32C185.52 50.1467 185.587 50.8533 185.72 51.44C185.853 52 186.053 52.4667 186.32 52.84C186.587 53.1867 186.893 53.44 187.24 53.6C187.613 53.76 188 53.84 188.4 53.84C188.96 53.84 189.467 53.7467 189.92 53.56C190.4 53.3467 190.8 53.04 191.12 52.64C191.467 52.24 191.733 51.7467 191.92 51.16C192.107 50.5467 192.2 49.8267 192.2 49V38.4H196.72V54.04C196.72 54.6267 196.733 55.16 196.76 55.64C196.813 56.0933 196.933 56.5467 197.12 57H193C192.867 56.7333 192.773 56.4667 192.72 56.2C192.667 55.9333 192.627 55.6667 192.6 55.4C192.6 55.1067 192.6 54.84 192.6 54.6C192.307 55.0533 191.973 55.4667 191.6 55.84C191.227 56.1867 190.813 56.48 190.36 56.72C189.933 56.96 189.467 57.1467 188.96 57.28C188.48 57.4133 187.987 57.48 187.48 57.48ZM210.96 57.4C209.893 57.4 208.96 57.2267 208.16 56.88C207.387 56.5333 206.733 55.9733 206.2 55.2C205.693 54.4267 205.32 53.4 205.08 52.12C204.867 50.84 204.8 49.2533 204.88 47.36L205.4 34L210.08 33.4L210.44 33.36L210.48 33.72C210.373 33.9067 210.267 34.0933 210.16 34.28C210.053 34.4667 209.987 34.7867 209.96 35.24L209.52 40.76L209.72 41.04L209.4 47.28C209.32 49.0133 209.373 50.36 209.56 51.32C209.773 52.2533 210.08 52.8933 210.48 53.24C210.907 53.5867 211.413 53.76 212 53.76C212.853 53.76 213.613 53.5867 214.28 53.24C214.973 52.8933 215.613 52.4933 216.2 52.04L217.16 55.32C216.253 55.9867 215.28 56.5067 214.24 56.88C213.227 57.2267 212.133 57.4 210.96 57.4ZM201.36 38.4H215.68L215.64 41.96H201.28L201.36 38.4ZM226.92 57.48C224.867 57.48 223.267 57 222.12 56.04C221 55.0533 220.44 53.7867 220.44 52.24C220.44 51.2533 220.653 50.3467 221.08 49.52C221.533 48.6667 222.2 47.9333 223.08 47.32C223.96 46.7067 225.053 46.24 226.36 45.92C227.667 45.5733 229.16 45.4 230.84 45.4C231.053 45.4 231.32 45.4 231.64 45.4C231.96 45.4 232.307 45.4133 232.68 45.44C233.053 45.44 233.4 45.4667 233.72 45.52L233.84 48.64C233.573 48.6133 233.253 48.6 232.88 48.6C232.507 48.5733 232.12 48.56 231.72 48.56C231.347 48.5333 231.027 48.52 230.76 48.52C229.693 48.52 228.787 48.6 228.04 48.76C227.32 48.92 226.733 49.1467 226.28 49.44C225.827 49.7067 225.493 50.04 225.28 50.44C225.067 50.8133 224.96 51.2267 224.96 51.68C224.96 52.1067 225.027 52.4667 225.16 52.76C225.32 53.0533 225.52 53.2933 225.76 53.48C226.027 53.64 226.333 53.76 226.68 53.84C227.027 53.92 227.4 53.96 227.8 53.96C228.6 53.96 229.293 53.84 229.88 53.6C230.493 53.3333 231 52.92 231.4 52.36C231.827 51.8 232.133 51.1067 232.32 50.28C232.533 49.4267 232.64 48.4267 232.64 47.28C232.64 45.7333 232.48 44.5467 232.16 43.72C231.84 42.8933 231.373 42.32 230.76 42C230.147 41.6533 229.373 41.48 228.44 41.48C227.587 41.48 226.773 41.6267 226 41.92C225.253 42.1867 224.52 42.6933 223.8 43.44L221.32 40.72C222.36 39.7333 223.52 39.0267 224.8 38.6C226.08 38.1733 227.36 37.96 228.64 37.96C229.813 37.96 230.907 38.0933 231.92 38.36C232.933 38.6267 233.813 39.08 234.56 39.72C235.333 40.3333 235.933 41.1867 236.36 42.28C236.813 43.3467 237.04 44.68 237.04 46.28V57H232.36V55C232.013 55.4533 231.64 55.84 231.24 56.16C230.84 56.48 230.413 56.7333 229.96 56.92C229.507 57.1067 229.027 57.24 228.52 57.32C228.013 57.4267 227.48 57.48 226.92 57.48ZM249.36 57.44C248.24 57.44 247.16 57.3333 246.12 57.12C245.08 56.9333 244.12 56.6267 243.24 56.2C242.36 55.7467 241.547 55.1733 240.8 54.48L242.8 50.8L242.96 50.48L243.28 50.68C243.36 50.8667 243.44 51.08 243.52 51.32C243.6 51.5333 243.8 51.7867 244.12 52.08C244.787 52.64 245.547 53.08 246.4 53.4C247.253 53.72 248.267 53.88 249.44 53.88C250.187 53.88 250.813 53.8 251.32 53.64C251.853 53.4533 252.253 53.2133 252.52 52.92C252.813 52.6 252.96 52.24 252.96 51.84C252.96 51.52 252.88 51.24 252.72 51C252.56 50.76 252.307 50.5467 251.96 50.36C251.613 50.1733 251.16 49.9867 250.6 49.8C250.04 49.5867 249.373 49.36 248.6 49.12C247.24 48.7733 246.053 48.3467 245.04 47.84C244.053 47.3067 243.293 46.6667 242.76 45.92C242.227 45.1733 241.96 44.3067 241.96 43.32C241.96 42.28 242.253 41.36 242.84 40.56C243.453 39.76 244.307 39.1333 245.4 38.68C246.493 38.2 247.787 37.96 249.28 37.96C250.053 37.96 250.787 38.0267 251.48 38.16C252.173 38.2667 252.827 38.44 253.44 38.68C254.08 38.8933 254.667 39.1867 255.2 39.56C255.76 39.9067 256.28 40.32 256.76 40.8L254.56 43.88L254.28 44.2L254 43.96C253.973 43.7467 253.907 43.5467 253.8 43.36C253.72 43.1467 253.52 42.8933 253.2 42.6C252.667 42.2 252.053 41.9067 251.36 41.72C250.693 41.5333 250.027 41.44 249.36 41.44C248.453 41.44 247.667 41.5867 247 41.88C246.36 42.1733 246.04 42.6267 246.04 43.24C246.04 43.5867 246.187 43.9067 246.48 44.2C246.773 44.4667 247.253 44.7333 247.92 45C248.613 45.24 249.52 45.5067 250.64 45.8C252.133 46.2 253.347 46.6667 254.28 47.2C255.24 47.7067 255.933 48.32 256.36 49.04C256.813 49.76 257.04 50.6 257.04 51.56C257.04 52.6 256.747 53.5733 256.16 54.48C255.573 55.3867 254.707 56.1067 253.56 56.64C252.44 57.1733 251.04 57.44 249.36 57.44ZM249.8 65.2C248.973 65.2 248.147 65.0933 247.32 64.88C246.52 64.6667 245.693 64.2267 244.84 63.56L246.32 60.92C247.013 61.5067 247.68 61.9067 248.32 62.12C248.96 62.36 249.613 62.48 250.28 62.48C250.76 62.48 251.187 62.3867 251.56 62.2C251.933 62.0133 252.12 61.76 252.12 61.44C252.12 61.1467 251.947 60.92 251.6 60.76C251.253 60.6267 250.8 60.56 250.24 60.56H248.28L248.76 57H251.96L251.8 58.24C252.467 58.2933 253.027 58.4533 253.48 58.72C253.96 59.0133 254.32 59.36 254.56 59.76C254.8 60.16 254.92 60.6 254.92 61.08C254.92 62.2267 254.453 63.2 253.52 64C252.613 64.8 251.373 65.2 249.8 65.2Z" fill="#D64000"/>
</svg>
