<?xml version="1.0" encoding="UTF-8"?>
<svg width="700pt" height="700pt" version="1.1" viewBox="0 0 700 700" xmlns="http://www.w3.org/2000/svg" xmlns:xlink="http://www.w3.org/1999/xlink">
 <defs>
  <symbol id="t" overflow="visible">
   <path d="m20.172-1.2031c-1.043 0.54297-2.125 0.94922-3.25 1.2188s-2.3047 0.40625-3.5312 0.40625c-3.6562 0-6.5547-1.0195-8.6875-3.0625-2.1367-2.0391-3.2031-4.8125-3.2031-8.3125 0-3.5078 1.0664-6.2852 3.2031-8.3281 2.1328-2.0391 5.0312-3.0625 8.6875-3.0625 1.2266 0 2.4062 0.13672 3.5312 0.40625 1.125 0.27344 2.207 0.67969 3.25 1.2188v4.5469c-1.0547-0.71875-2.0898-1.2422-3.1094-1.5781-1.0117-0.33203-2.0859-0.5-3.2188-0.5-2.0117 0-3.6016 0.65234-4.7656 1.9531-1.1562 1.293-1.7344 3.0742-1.7344 5.3438 0 2.2617 0.57812 4.043 1.7344 5.3438 1.1641 1.293 2.7539 1.9375 4.7656 1.9375 1.1328 0 2.207-0.16406 3.2188-0.5 1.0195-0.33203 2.0547-0.85938 3.1094-1.5781z"/>
  </symbol>
  <symbol id="b" overflow="visible">
   <path d="m14.766-11.984c-0.46875-0.21875-0.93359-0.375-1.3906-0.46875-0.44922-0.10156-0.90234-0.15625-1.3594-0.15625-1.3555 0-2.3984 0.43359-3.125 1.2969-0.73047 0.86719-1.0938 2.1055-1.0938 3.7188v7.5938h-5.2656v-16.469h5.2656v2.7031c0.67578-1.0703 1.4531-1.8516 2.3281-2.3438 0.875-0.5 1.9258-0.75 3.1562-0.75 0.17578 0 0.36328 0.011719 0.5625 0.03125 0.20703 0.011719 0.50781 0.039063 0.90625 0.078125z"/>
  </symbol>
  <symbol id="a" overflow="visible">
   <path d="m18.969-8.2812v1.5h-12.312c0.125 1.2422 0.56641 2.168 1.3281 2.7812 0.76953 0.61719 1.8438 0.92188 3.2188 0.92188 1.1016 0 2.2344-0.16016 3.3906-0.48438 1.1641-0.33203 2.3633-0.83203 3.5938-1.5v4.0625c-1.25 0.46875-2.5 0.82422-3.75 1.0625-1.2422 0.23828-2.4805 0.35938-3.7188 0.35938-2.9805 0-5.2969-0.75391-6.9531-2.2656-1.6484-1.5078-2.4688-3.6328-2.4688-6.375 0-2.6875 0.80469-4.7969 2.4219-6.3281 1.625-1.5391 3.8594-2.3125 6.7031-2.3125 2.5938 0 4.6641 0.78125 6.2188 2.3438 1.5508 1.5547 2.3281 3.6328 2.3281 6.2344zm-5.4062-1.75c0-1-0.29297-1.8008-0.875-2.4062-0.58594-0.61328-1.3516-0.92188-2.2969-0.92188-1.0234 0-1.8516 0.28906-2.4844 0.85938-0.63672 0.57422-1.0312 1.3984-1.1875 2.4688z"/>
  </symbol>
  <symbol id="g" overflow="visible">
   <path d="m9.9062-7.4062c-1.0938 0-1.9219 0.1875-2.4844 0.5625-0.55469 0.36719-0.82812 0.91406-0.82812 1.6406 0 0.66797 0.22266 1.1875 0.67188 1.5625 0.44531 0.375 1.0664 0.5625 1.8594 0.5625 0.98828 0 1.8203-0.35156 2.5-1.0625 0.67578-0.70703 1.0156-1.5977 1.0156-2.6719v-0.59375zm8.0469-1.9844v9.3906h-5.3125v-2.4375c-0.71094 1-1.5078 1.7305-2.3906 2.1875-0.875 0.44531-1.9453 0.67188-3.2031 0.67188-1.7109 0-3.0938-0.49219-4.1562-1.4844-1.0625-1-1.5938-2.2891-1.5938-3.875 0-1.9375 0.66016-3.3516 1.9844-4.25 1.332-0.90625 3.4219-1.3594 6.2656-1.3594h3.0938v-0.40625c0-0.83203-0.32812-1.4414-0.98438-1.8281-0.65625-0.38281-1.6836-0.57812-3.0781-0.57812-1.125 0-2.1719 0.11719-3.1406 0.34375-0.96875 0.21875-1.8711 0.55469-2.7031 1v-4.0156c1.125-0.26953 2.2539-0.47266 3.3906-0.60938 1.1445-0.14453 2.2852-0.21875 3.4219-0.21875 2.9688 0 5.1094 0.58984 6.4219 1.7656 1.3203 1.168 1.9844 3.0703 1.9844 5.7031z"/>
  </symbol>
  <symbol id="d" overflow="visible">
   <path d="m8.2812-21.141v4.6719h5.4219v3.7656h-5.4219v6.9844c0 0.76172 0.14844 1.2773 0.45312 1.5469 0.30078 0.27344 0.90625 0.40625 1.8125 0.40625h2.7031v3.7656h-4.5156c-2.0859 0-3.5586-0.42969-4.4219-1.2969-0.86719-0.875-1.2969-2.3477-1.2969-4.4219v-6.9844h-2.625v-3.7656h2.625v-4.6719z"/>
  </symbol>
  <symbol id="k" overflow="visible">
   <path d="m13.734-14.062v-8.8125h5.2969v22.875h-5.2969v-2.375c-0.73047 0.96875-1.5312 1.6797-2.4062 2.125-0.86719 0.44531-1.8711 0.67188-3.0156 0.67188-2.0312 0-3.6992-0.80078-5-2.4062-1.3047-1.6133-1.9531-3.6914-1.9531-6.2344 0-2.5391 0.64844-4.6133 1.9531-6.2188 1.3008-1.6133 2.9688-2.4219 5-2.4219 1.1328 0 2.1406 0.23047 3.0156 0.6875 0.875 0.44922 1.6758 1.1523 2.4062 2.1094zm-3.4688 10.672c1.125 0 1.9844-0.41016 2.5781-1.2344 0.59375-0.82031 0.89062-2.0195 0.89062-3.5938 0-1.5703-0.29688-2.7695-0.89062-3.5938-0.59375-0.82031-1.4531-1.2344-2.5781-1.2344s-1.9844 0.41406-2.5781 1.2344c-0.58594 0.82422-0.875 2.0234-0.875 3.5938 0 1.5742 0.28906 2.7734 0.875 3.5938 0.59375 0.82422 1.4531 1.2344 2.5781 1.2344z"/>
  </symbol>
  <symbol id="j" overflow="visible">
   <path d="m11.297-3.3906c1.125 0 1.9844-0.41016 2.5781-1.2344 0.59375-0.82031 0.89062-2.0195 0.89062-3.5938 0-1.5703-0.29688-2.7695-0.89062-3.5938-0.59375-0.82031-1.4531-1.2344-2.5781-1.2344-1.1367 0-2.0078 0.41797-2.6094 1.25-0.59375 0.82422-0.89062 2.0156-0.89062 3.5781s0.29688 2.7617 0.89062 3.5938c0.60156 0.82422 1.4727 1.2344 2.6094 1.2344zm-3.5-10.672c0.71875-0.95703 1.5195-1.6602 2.4062-2.1094 0.88281-0.45703 1.8984-0.6875 3.0469-0.6875 2.0312 0 3.6953 0.80859 5 2.4219 1.3008 1.6055 1.9531 3.6797 1.9531 6.2188 0 2.543-0.65234 4.6211-1.9531 6.2344-1.3047 1.6055-2.9688 2.4062-5 2.4062-1.1484 0-2.1641-0.22656-3.0469-0.67188-0.88672-0.45703-1.6875-1.1641-2.4062-2.125v2.375h-5.2656v-22.875h5.2656z"/>
  </symbol>
  <symbol id="i" overflow="visible">
   <path d="m0.375-16.469h5.25l4.4375 11.172 3.75-11.172h5.2656l-6.9219 18.031c-0.69922 1.832-1.5117 3.1133-2.4375 3.8438-0.91797 0.72656-2.1367 1.0938-3.6562 1.0938h-3.0469v-3.4531h1.6406c0.89453 0 1.5469-0.14844 1.9531-0.4375 0.40625-0.28125 0.72266-0.78906 0.95312-1.5156l0.14062-0.46875z"/>
  </symbol>
  <symbol id="f" overflow="visible">
   <path d="m2.3594-6.4062v-10.062h5.2812v1.6562c0 0.88672-0.007813 2.0078-0.015625 3.3594-0.011719 1.3438-0.015625 2.2422-0.015625 2.6875 0 1.3242 0.035156 2.2773 0.10938 2.8594 0.070312 0.58594 0.19141 1.0117 0.35938 1.2812 0.20703 0.34375 0.48438 0.60938 0.82812 0.79688 0.35156 0.17969 0.75391 0.26562 1.2031 0.26562 1.1016 0 1.9688-0.42188 2.5938-1.2656s0.9375-2.0156 0.9375-3.5156v-8.125h5.2656v16.469h-5.2656v-2.375c-0.79297 0.96094-1.6328 1.668-2.5156 2.125-0.88672 0.44531-1.8672 0.67188-2.9375 0.67188-1.8984 0-3.3438-0.58203-4.3438-1.75-0.99219-1.1641-1.4844-2.8594-1.4844-5.0781z"/>
  </symbol>
  <symbol id="s" overflow="visible">
   <path d="m2.5312-22.875h5.2656v12.453l6.0469-6.0469h6.125l-8.0469 7.5625 8.6719 8.9062h-6.375l-6.4219-6.8594v6.8594h-5.2656z"/>
  </symbol>
  <symbol id="e" overflow="visible">
   <path d="m19.078-10.031v10.031h-5.2812v-7.6719c0-1.4258-0.039063-2.4062-0.10938-2.9375-0.0625-0.53906-0.17188-0.94141-0.32812-1.2031-0.19922-0.33203-0.47656-0.59375-0.82812-0.78125-0.35547-0.19531-0.75781-0.29688-1.2031-0.29688-1.1055 0-1.9688 0.42969-2.5938 1.2812-0.625 0.84375-0.9375 2.0156-0.9375 3.5156v8.0938h-5.2656v-16.469h5.2656v2.4062c0.78906-0.95703 1.6289-1.6602 2.5156-2.1094 0.89453-0.45703 1.8828-0.6875 2.9688-0.6875 1.8945 0 3.332 0.58594 4.3125 1.75 0.98828 1.168 1.4844 2.8594 1.4844 5.0781z"/>
  </symbol>
  <symbol id="r" overflow="visible">
   <path d="m2.5312-16.469h5.2656v16.469h-5.2656zm0-6.4062h5.2656v4.2969h-5.2656z"/>
  </symbol>
  <symbol id="h" overflow="visible">
   <path d="m15.828-15.953v4.2969c-0.71094-0.48828-1.4297-0.84766-2.1562-1.0781-0.71875-0.23828-1.4648-0.35938-2.2344-0.35938-1.4688 0-2.6172 0.42969-3.4375 1.2812-0.8125 0.85547-1.2188 2.0547-1.2188 3.5938 0 1.543 0.40625 2.7422 1.2188 3.5938 0.82031 0.85547 1.9688 1.2812 3.4375 1.2812 0.82031 0 1.6016-0.11719 2.3438-0.35938 0.73828-0.25 1.4219-0.61328 2.0469-1.0938v4.3125c-0.82422 0.30469-1.6562 0.52344-2.5 0.67188-0.84375 0.15625-1.6953 0.23438-2.5469 0.23438-2.9688 0-5.293-0.75781-6.9688-2.2812-1.6797-1.5195-2.5156-3.6406-2.5156-6.3594s0.83594-4.8359 2.5156-6.3594c1.6758-1.5195 4-2.2812 6.9688-2.2812 0.85156 0 1.6953 0.078125 2.5312 0.23438 0.84375 0.14844 1.6797 0.37109 2.5156 0.67188z"/>
  </symbol>
  <symbol id="c" overflow="visible">
   <path d="m10.359-13.094c-1.168 0-2.0586 0.42188-2.6719 1.2656-0.60547 0.83594-0.90625 2.0391-0.90625 3.6094 0 1.5859 0.30078 2.793 0.90625 3.625 0.61328 0.83594 1.5039 1.25 2.6719 1.25 1.1445 0 2.0195-0.41406 2.625-1.25 0.61328-0.83203 0.92188-2.0391 0.92188-3.625 0-1.5703-0.30859-2.7734-0.92188-3.6094-0.60547-0.84375-1.4805-1.2656-2.625-1.2656zm0-3.7656c2.832 0 5.0469 0.76562 6.6406 2.2969 1.5938 1.5234 2.3906 3.6367 2.3906 6.3438 0 2.7109-0.79688 4.8281-2.3906 6.3594-1.5938 1.5234-3.8086 2.2812-6.6406 2.2812-2.8438 0-5.0703-0.75781-6.6719-2.2812-1.5938-1.5312-2.3906-3.6484-2.3906-6.3594 0-2.707 0.79688-4.8203 2.3906-6.3438 1.6016-1.5312 3.8281-2.2969 6.6719-2.2969z"/>
  </symbol>
  <symbol id="q" overflow="visible">
   <path d="m13.359-22.875v3.4531h-2.9062c-0.75 0-1.2734 0.13672-1.5625 0.40625-0.29297 0.27344-0.4375 0.74219-0.4375 1.4062v1.1406h4.5v3.7656h-4.5v12.703h-5.2656v-12.703h-2.6094v-3.7656h2.6094v-1.1406c0-1.7891 0.5-3.1133 1.5-3.9688 1-0.86328 2.5469-1.2969 4.6406-1.2969z"/>
  </symbol>
  <symbol id="p" overflow="visible">
   <path d="m17.797-13.734c0.65625-1.0195 1.4414-1.7969 2.3594-2.3281 0.91406-0.53125 1.9258-0.79688 3.0312-0.79688 1.8828 0 3.3203 0.58594 4.3125 1.75 0.98828 1.168 1.4844 2.8594 1.4844 5.0781v10.031h-5.2812v-8.5781c0.007813-0.13281 0.015625-0.26953 0.015625-0.40625 0.007812-0.13281 0.015625-0.33203 0.015625-0.59375 0-1.1641-0.17188-2.0078-0.51562-2.5312-0.34375-0.51953-0.90234-0.78125-1.6719-0.78125-1 0-1.7734 0.41406-2.3125 1.2344-0.54297 0.82422-0.82422 2.0117-0.84375 3.5625v8.0938h-5.2969v-8.5781c0-1.832-0.15625-3.0078-0.46875-3.5312-0.3125-0.51953-0.87109-0.78125-1.6719-0.78125-1.0117 0-1.793 0.41797-2.3438 1.25-0.54297 0.82422-0.8125 2.0078-0.8125 3.5469v8.0938h-5.2969v-16.469h5.2969v2.4062c0.64453-0.92578 1.3828-1.625 2.2188-2.0938 0.84375-0.46875 1.7695-0.70312 2.7812-0.70312 1.1328 0 2.1328 0.27734 3 0.82812 0.875 0.54297 1.5391 1.3086 2 2.2969z"/>
  </symbol>
  <symbol id="o" overflow="visible">
   <path d="m19.078-10.031v10.031h-5.2812v-7.6406c0-1.4453-0.039063-2.4375-0.10938-2.9688-0.0625-0.53906-0.17188-0.94141-0.32812-1.2031-0.19922-0.33203-0.47656-0.59375-0.82812-0.78125-0.35547-0.19531-0.75781-0.29688-1.2031-0.29688-1.1055 0-1.9688 0.42969-2.5938 1.2812-0.625 0.84375-0.9375 2.0156-0.9375 3.5156v8.0938h-5.2656v-22.875h5.2656v8.8125c0.78906-0.95703 1.6289-1.6602 2.5156-2.1094 0.89453-0.45703 1.8828-0.6875 2.9688-0.6875 1.8945 0 3.332 0.58594 4.3125 1.75 0.98828 1.168 1.4844 2.8594 1.4844 5.0781z"/>
  </symbol>
  <symbol id="n" overflow="visible">
   <path d="m2.7656-21.953h6.3125l7.9844 15.062v-15.062h5.375v21.953h-6.3281l-7.9844-15.062v15.062h-5.3594z"/>
  </symbol>
  <symbol id="m" overflow="visible">
   <path d="m2.7656-21.953h9.3906c2.7891 0 4.9297 0.62109 6.4219 1.8594 1.5 1.2422 2.25 3.0078 2.25 5.2969 0 2.3125-0.75 4.0898-2.25 5.3281-1.4922 1.2422-3.6328 1.8594-6.4219 1.8594h-3.7344v7.6094h-5.6562zm5.6562 4.1094v6.125h3.1406c1.0938 0 1.9375-0.26562 2.5312-0.79688 0.60156-0.53125 0.90625-1.2891 0.90625-2.2812 0-0.97656-0.30469-1.7266-0.90625-2.25-0.59375-0.53125-1.4375-0.79688-2.5312-0.79688z"/>
  </symbol>
  <symbol id="l" overflow="visible">
   <path d="m2.5312-16.469h5.2656v16.172c0 2.207-0.53125 3.8906-1.5938 5.0469-1.0625 1.1641-2.5938 1.75-4.5938 1.75h-2.6094v-3.4531h0.90625c1 0 1.6875-0.23047 2.0625-0.6875 0.375-0.44922 0.5625-1.3359 0.5625-2.6562zm0-6.4062h5.2656v4.2969h-5.2656z"/>
  </symbol>
 </defs>
 <g>
  <path d="m447.48 189.07c-1.1484 25-34.637 52.84-59.082 73.16-4.2578 3.5391-8.3633 6.9492-12.121 10.195-3.7617-3.2461-7.8711-6.6523-12.129-10.195-24.449-20.324-57.934-48.172-59.078-73.16-0.089844-9.5234 4.0117-18.609 11.215-24.844 6.7305-6.5352 15.762-10.156 25.145-10.078h0.03125c11.035 0.023437 21.414 5.2422 28.016 14.082 1.5977 2.1523 4.1172 3.4219 6.7969 3.4219 2.6797 0 5.1992-1.2695 6.793-3.4219 6.6094-8.8438 16.992-14.059 28.031-14.082 9.3906-0.085938 18.434 3.5352 25.172 10.07 7.1992 6.2383 11.301 15.324 11.211 24.852zm-36.348-51.852h-0.042968 0.003906c-12.867 0.03125-25.27 4.8164-34.816 13.441-9.5469-8.625-21.949-13.41-34.812-13.441h-0.046876c-13.879-0.0625-27.227 5.3438-37.141 15.055-10.59 9.5859-16.477 23.309-16.125 37.586 1.4922 32.473 36.805 61.824 65.172 85.414 6.3828 5.3047 12.406 10.309 17.238 14.723 3.2305 2.9844 8.2109 2.9844 11.441 0 4.8164-4.4141 10.84-9.418 17.238-14.723 28.355-23.578 63.66-52.957 65.172-85.426 0.35547-14.281-5.5352-28.008-16.129-37.59-9.9102-9.7148-23.254-15.121-37.133-15.055zm-34.859 187.39h0.003907c31.477 0 61.668-12.504 83.926-34.766 22.258-22.258 34.762-52.449 34.762-83.93 0-31.477-12.508-61.668-34.766-83.926-22.262-22.258-52.453-34.762-83.93-34.758-31.48 0-61.672 12.508-83.926 34.77-22.258 22.262-34.762 52.453-34.758 83.93 0.035157 31.469 12.551 61.637 34.801 83.887 22.254 22.25 52.422 34.766 83.891 34.801zm0-254.3h0.003907c-35.969 0-70.465 14.285-95.902 39.719-25.434 25.438-39.723 59.93-39.723 95.898s14.289 70.465 39.723 95.902c25.434 25.434 59.93 39.723 95.898 39.723 35.969 0.003907 70.465-14.285 95.898-39.719 25.434-25.434 39.727-59.926 39.727-95.898-0.039062-35.957-14.34-70.43-39.766-95.859-25.426-25.426-59.898-39.727-95.855-39.766zm97.375 463.72c-15.102-85.906 17.367-139.43 48.812-191.27 30.188-49.762 58.703-96.766 44.727-171.27-13.109-69.91-70.789-141.99-170.1-145.39-109.64-3.7383-200.17 70.781-210.58 173.42v0.003907c-0.11719 1.1484-0.46484 2.2617-1.0312 3.2695l-53.332 95.566 50.23 29.504h0.003906c2.5859 1.5234 4.1758 4.3008 4.1758 7.3047v72.844c0.015625 10.535 4.207 20.637 11.656 28.086 7.4492 7.4492 17.551 11.641 28.086 11.656h58.41c4.6758 0.003906 8.4648 3.793 8.4648 8.4727v77.801zm110.2-365.66c-14.363-76.551-77.492-155.46-186.17-159.2-55.172-2.3242-109.34 15.293-152.59 49.625-20.965 16.793-38.406 37.562-51.32 61.117-12.91 23.555-21.039 49.43-23.918 76.137l-56.523 101.28c-2.2539 4.0234-0.875 9.1094 3.0977 11.441l53.195 31.262v67.984c0.019531 15.031 5.9961 29.441 16.625 40.066 10.629 10.629 25.039 16.609 40.066 16.625h49.941v77.797h0.003906c0.007812 4.6758 3.7969 8.457 8.4727 8.457h199.2c2.5547-0.003906 4.9727-1.1602 6.582-3.1445 1.6055-1.9883 2.2305-4.5938 1.6992-7.0938-18.234-85.387 12.352-135.81 44.734-189.18 30.516-50.297 62.062-102.3 46.895-183.17z" fill-rule="evenodd"/>
  <use x="70" y="650.324219" xlink:href="#t"/>
  <use x="92.09375" y="650.324219" xlink:href="#b"/>
  <use x="106.945312" y="650.324219" xlink:href="#a"/>
  <use x="127.363281" y="650.324219" xlink:href="#g"/>
  <use x="147.679688" y="650.324219" xlink:href="#d"/>
  <use x="162.070312" y="650.324219" xlink:href="#a"/>
  <use x="182.492188" y="650.324219" xlink:href="#k"/>
  <use x="214.523437" y="650.324219" xlink:href="#j"/>
  <use x="236.078125" y="650.324219" xlink:href="#i"/>
  <use x="266.183594" y="650.324219" xlink:href="#b"/>
  <use x="281.03125" y="650.324219" xlink:href="#f"/>
  <use x="302.464844" y="650.324219" xlink:href="#s"/>
  <use x="322.488281" y="650.324219" xlink:href="#g"/>
  <use x="342.804687" y="650.324219" xlink:href="#e"/>
  <use x="364.238281" y="650.324219" xlink:href="#r"/>
  <use x="374.558594" y="650.324219" xlink:href="#h"/>
  <use x="392.40625" y="650.324219" xlink:href="#c"/>
  <use x="413.089844" y="650.324219" xlink:href="#e"/>
  <use x="70" y="680.429688" xlink:href="#q"/>
  <use x="83.097656" y="680.429688" xlink:href="#b"/>
  <use x="97.945312" y="680.429688" xlink:href="#c"/>
  <use x="118.628906" y="680.429688" xlink:href="#p"/>
  <use x="160.484375" y="680.429688" xlink:href="#d"/>
  <use x="174.875" y="680.429688" xlink:href="#o"/>
  <use x="196.308594" y="680.429688" xlink:href="#a"/>
  <use x="227.210937" y="680.429688" xlink:href="#n"/>
  <use x="252.410156" y="680.429688" xlink:href="#c"/>
  <use x="273.09375" y="680.429688" xlink:href="#f"/>
  <use x="294.527344" y="680.429688" xlink:href="#e"/>
  <use x="326.441406" y="680.429688" xlink:href="#m"/>
  <use x="348.507812" y="680.429688" xlink:href="#b"/>
  <use x="363.355469" y="680.429688" xlink:href="#c"/>
  <use x="384.042969" y="680.429688" xlink:href="#l"/>
  <use x="394.363281" y="680.429688" xlink:href="#a"/>
  <use x="414.78125" y="680.429688" xlink:href="#h"/>
  <use x="432.628906" y="680.429688" xlink:href="#d"/>
 </g>
</svg>
