<svg id="visual" viewBox="0 0 900 600" width="900" height="600" xmlns="http://www.w3.org/2000/svg" xmlns:xlink="http://www.w3.org/1999/xlink" version="1.1"><rect x="0" y="0" width="900" height="600" fill="#002233"></rect><path d="M0 451L21.5 456.2C43 461.3 86 471.7 128.8 470.7C171.7 469.7 214.3 457.3 257.2 452.2C300 447 343 449 385.8 458.3C428.7 467.7 471.3 484.3 514.2 481.8C557 479.3 600 457.7 642.8 442.3C685.7 427 728.3 418 771.2 424.7C814 431.3 857 453.7 878.5 464.8L900 476L900 601L878.5 601C857 601 814 601 771.2 601C728.3 601 685.7 601 642.8 601C600 601 557 601 514.2 601C471.3 601 428.7 601 385.8 601C343 601 300 601 257.2 601C214.3 601 171.7 601 128.8 601C86 601 43 601 21.5 601L0 601Z" fill="#D64000" stroke-linecap="round" stroke-linejoin="miter"></path></svg>